<?xml version="1.0" encoding="utf-8"?>
<!-- Generator: Adobe Illustrator 21.1.0, SVG Export Plug-In . SVG Version: 6.00 Build 0)  -->
<svg version="1.1" id="Bear_logo" xmlns="http://www.w3.org/2000/svg" xmlns:xlink="http://www.w3.org/1999/xlink" x="0px" y="0px"
	 viewBox="0 0 450 450" style="enable-background:new 0 0 450 450;" xml:space="preserve">
<style type="text/css">
	.st0{fill:url(#SVGID_1_);}
	.st1{fill:#FFFFFF;}
</style>
<g id="Background">
	<radialGradient id="SVGID_1_" cx="218.2511" cy="224.25" r="225" gradientUnits="userSpaceOnUse">
		<stop  offset="0" style="stop-color:#FFFFFF"/>
		<stop  offset="0.2839" style="stop-color:#FBFBFB"/>
		<stop  offset="0.5726" style="stop-color:#EFEFEF"/>
		<stop  offset="0.8625" style="stop-color:#DADADA"/>
		<stop  offset="0.9951" style="stop-color:#CFCFCF"/>
	</radialGradient>
	<rect x="-0.8" y="-0.8" class="st0" width="450" height="450"/>
</g>
<g id="XMLID_4_">
	<g>
		<path class="st1" d="M359.9,258c-3.6,1.5-1.1,7-1.7,13.4c2,1,6.1,2.4,8.1,3C364.8,264.6,364.4,260.2,359.9,258z"/>
		<path class="st1" d="M385,276.6c-5.4,2.3-11.7,3-17.6,2.4c-0.7,0.7-5.3-0.9-6.8-1.3c-4.5-1.4-8.6-4.8-12.6-7.2
			c-6.1-3.7-12.2-7.4-18.4-11c-6.2-3.6-21-14.3-27.5-19.1c0.6,0.7,7.9,8.4,8.6,9.1c3.6,3.4,8.1,6,12.2,8.7
			c9.6,6.3,16.4,15.1,25.2,22.3c4.9,4,10.2,6.7,16.7,6.1c6.7-0.6,13.2-4,19.6-5.9c5.3-1.5,15.8-1.8,12.6-9.9
			c-0.9-2.2-1.6-2.5-4.6-4.8C396,273,386.8,275.9,385,276.6z"/>
		<path class="st1" d="M378.6,260.9c0,1.9,0.2,3.6,1.4,5.2c1.3,1.6,7,3.3,9.6,2.9c0.5-2.9,1.3-5.7,1.8-8.6c0.3-1.5,0.5-2.9,0.5-4.4
			c0-0.6,0.2-7.7-1.7-7.2c-2-0.4-3.7,7.1-5.1,8.1C383,258.4,380.9,259.9,378.6,260.9z"/>
		<path class="st1" d="M329.9,168.1c2.3-1.1,6.3-2.6,8.5-3.7c0.9,4.5,1,2.4-1.3,19.9C331.9,177.8,330,168.5,329.9,168.1z"/>
		<path class="st1" d="M373.3,150.6c0.7,2.4,2.2,4.7,2.8,7c1.1,4.5,1.8,9.1,2.2,13.6c-4.7-2.6-9.4-8.1-13.3-12.2
			C367.5,156.8,372.9,150.8,373.3,150.6z"/>
		<path class="st1" d="M327.1,112.8c2.3-2.4,4.2-5.3,6.2-8.1c3.5-4.9,8.3-10.6,14.3-12.5c6-1.9,10.1,0.3,15.2,3.1
			c4.6,2.5,9.5,5.6,12.7,9.8c1.2,1.6,2,3.2,2.7,4.9c-0.3,1.1-0.3,2.3-1.6,2.8c-1,0.4-2.2-1-2.8-1.7c-1.5-1.8-2.6-4.5-4.5-6
			c-1.2-1.6-2.7-2.9-4.4-3.6c-1.2-0.5-2,0.9-1.3,1.8c1.1,1.6,2.5,3.2,3.3,5.1c0.6,1.2,0.7,2.2,0.5,3.3c-3.2-0.1-6.3,0-9.2,0.5
			c2-5.1-1.4-10.7-7.3-10.3c-1,0.1-2,1.1-2.1,2.2c-0.2,3.3,1,6.1,0.3,9.2c-0.3,0.2-0.7,0.3-1,0.5c-3,1.4-6.3,2.8-9.5,3.7
			c-1.4-0.1-2.8-0.3-4.1-1C332,115.3,327.2,113,327.1,112.8z"/>
		<path class="st1" d="M55.2,279.3c0.1,0.2,0.2,0.4,0.3,0.6c0.6,1.2,1.1,2.4,1.6,3.6c1.5-9,5.9-18,10.9-25c0.8-1.2-16.8,35,14.4,68
			c8.1,8.6,18.7,14.5,28.7,20.6c1.3,0.8,2.6,1.5,3.9,2.2c-2.1-2-4.2-4-6.2-6.1c-16.3-16.6-29.8-40.6-25.1-64.7c0.1-0.7,1-0.5,1,0.1
			c0,12.7,1.7,24.1,7.2,35.7c5.1,10.7,12.8,19.9,21.2,28c1.5,1.5,3.1,2.9,4.7,4.3c0.1-0.2,0.4-0.3,0.6-0.1
			c10.3,6.9,22.6,7.5,34.5,9.4c-6.4-5.2-12.1-11.2-17.1-17.9c-7.1-9.6-15.1-24.5-13.6-36.9c0-0.1,0.1-0.1,0.1,0
			c3.2,5.7,4.8,12.3,7.7,18.2c2.9,6.1,6.9,11.7,11.2,16.8c6.1,7.3,23.8,15,31.8,20.3c-5-7.1-16.6-28.3-15.2-27.2
			c10.9,8.8,39.6,33.7,75.2,37.7c7.8,0.9,31,5.1,35.1,5.5c-1.8-1-3.5-2-5.2-3.2c-11.6-7.9-36-26.5-34.1-25.1
			c69.8,49.8,87.3,26.4,90.2,0.8c0.1-1.2,1.7-1.8,2.1-0.6c3.2,10.6,0.7,19.3-5,26.2c2.9-1.9,9.9-3.4,14-17c1.4-4.8,1.5-10.1,1.3-15
			c-0.2-5.2-1.8-10.7-0.8-15.7c0-0.2,0.3-0.3,0.4-0.1c4.8,7.8,5,20.9,3.6,30c0.9-1.4,1.7-2.9,2.5-4.4c3.4-6.6,4.2-12.8,3.3-20.1
			c-0.7-5.7-1.9-11.1-0.7-16.7c0.1-0.4,0.2-0.9,0.3-1.3c0-0.2,0.1-0.3,0.2-0.4c-3.4-0.5-6.8-1-10.2-1.5c-2.7-0.4-5.2-0.4-7.6-0.1
			c-0.1,0.2-0.3,0.4-0.6,0.6c-8.4,4.9-15.4,12-17,22c-1.1,6.9,0.1,13.2-3,19.8c-0.5,1-2.4-15.6-1.2-27.4c0.4-3.8,10-11.8,13-14.8
			c-8,0.2-21.3,9.4-20.3,7.8c13.6-21,40.8-12.1,60.9-11.2c14.3,0.6,24.9-6.4,34.5-16.2c0.9-1,3.4-3.9,6.1-6.2
			c-5,1.8-10.8,2.5-15.5,4.2c-7.2,2.6-14.3,5.2-21.9,3.3c-14-3.4-23-18.6-34.2-26.6c-6-4.3-20.8-16.9-20.8-16.9
			c-12.2-2.4-7.8-23.9-7.9-32.5c-0.1-15.8,5.7-29.7,17.1-40.9c5.5-5.4,12.3-8.6,19.3-11.8c8-3.7,15.4-8.3,23.3-12.2
			c3.8-1.9,7.7-3.3,11.3-5.8c3.6-2.4,4.6-6.5,6.3-10.2c1.6-3.4,3.5-5.5,7.3-5.5c0.4,0,0.7,0.3,0.8,0.7c0.1,0.4-0.1,0.8-0.5,1
			c-3.8,1.4-4.7,9.6-6.1,12.8c-0.6,1.4-1.4,2.5-2.4,3.6c-2.2,2.5-5.2,4.3-8,5.9c-7.5,4.3-15.4,7.1-23.1,11
			c4.2,8.8-1.1,28.2-2.3,26.9c-4.8-5.5-10.4-21-10.6-20.9c-12.3,6.2-26.5,31.5-25.5,31.6c14.2,1,30.1,13,38.6,23.5
			c8.7,10.7,14.2,30.4,12.2,44.5c0.8,0.4,4.3,1.8,3.6,1.5c-1.3-13.5,4-13.8,5.7-14c1.7-0.2,6.2,11.4,6.6,14.2
			c0.2,1.1,0.4,4.1,0.6,5.1c3.6,0.4,13.6-1.9,18.9-3.7c-3.3-0.5-9.9-1.9-11.6-4.9c-1-1.9,1.1-9.9,5.5-9c-2-1.3-6.9-5.6-8.7-7.2
			c-4.1-3.3-8-6.9-11.2-11.1c-5.6-7.4-8.3-17.6-8.4-26.7c-0.2-10.3,2.6-19.4,8.3-27.9c2.4-3.7,5.3-6.9,7.6-10.7
			c0.7-1.1,2.1-4.5,3.2-5.1c-2.9-3.4-6.2-5-9.4-7.6c-1.1-0.9-1.3-2.6-0.1-3.5c4-3.1,8.7-10.8,11.8-9.2c0.1,0.1,2.5,4.3,3.3,5.7
			c1.6-3.5,4.8-7.3,5.3-11.5c0.6-4.1-0.1-8.5-0.6-12.6c-0.1-0.6-0.2-1.3-0.3-2.1c-0.5-3.1-1.3-7-0.7-10.2c0-0.1-0.5-0.9-0.7-1.3
			c-4,1.5-8.2,0.7-12.4,0.6c-7.8-0.3-14.4,1.3-21.7,4.1c-4.1,1.6-7.9,2.4-12.2,1.1c-3.4-1.1-8.2-2.8-9.8-6.2c-0.1-0.4-4,1.9-6.7,2.6
			c-7.4,2-17.9,3.8-25.4,1.5c0,0,0-0.1,0-0.1c8.3-5.9,19.8-3.5,28-8.8c-10.4-1.9-15.3-16.4-28.5-11.9c-3.4,1.2-6.6,2.3-9.8,3.3
			c-4.8,1.6-9.6,2.9-14.9,3.9c-10.7,1.9-21.5,3.1-32.2,4.3c-19.5,2.2-38.9,1.8-58.1,6.3c-10.4,2.4-19.8,6.3-29.4,10.9
			c-4.9,2.3-10,4.4-14.6,7.3c-2.4,1.5-4.7,2.7-7.6,2.8c-0.1,0,8.4,1.2,12.5,3c1.1,0.5-7.4,2.6-8.1,2.5c-4-0.6-8-1.2-12-1.8
			c-7.4-1.1-14.3-4.1-21.7-5.1c-15.5-2-22.5,13.5-23.6,26.4c-0.7,7.7-2.5,14.4,0.3,22c2.8,7.6,9.2,14.3,16.4,17.7
			c5.2,2.5,11,3.7,16.8,4.3c6.2,0.7,11.4-1.2,17.4-2c1-0.1,1.9,0.9,1.5,1.9c-4.9,12.3-27.9,5.8-36.6,2.4c-5.2-2.1-9.7-5.3-13.3-9.3
			c-9.9,4.2-15.5,20.5-19.9,28.9C44,250.6,54.6,277.9,55.2,279.3z M232.3,150.6c-0.7-4,8.9-14.9,10-17.4c0.8-1.9,0.1-3.6,2.1-4.5
			c3-1.3,13.2,6,15.1,7.8c0.7,0.7,1.4,1.3,2.1,2c0.9,0.8,1.1,1.1,1.2,1.1c3.1,2.1,1,6,0,6c-5.4-0.1-10.6-1.9-15.9-0.9
			c-4.5,0.8-5.4,4.6-9.5,5.9C235.5,151.2,232.6,152.6,232.3,150.6z M115.8,185c-3-1.3-6.5-1.6-9.8-1.3c-2.2,0.2-4.3,0.9-6.1,2.3
			c-1.5,1.1-1.8,2.3-3.7,2.8c-0.7,0.2-1.3-9.6,9.1-9.9c2.2-0.1,9.5,2.1,9.6,2c-2.5-2.1-4.8-4.7-7-7.1c-2.2-2.5-4.8-12.4-9.2-10.5
			c-1.9,0.8,3.5-7.4,10.2,1.5c7.2,9.6,14.3,18,26.4,18.5C136.7,183.4,116.7,185.3,115.8,185z"/>
	</g>
</g>
</svg>
