<svg id="Bear_logo" xmlns="http://www.w3.org/2000/svg" viewBox="0 0 450 450"><style>.st0{fill:url(#SVGID_1_);} .st1{fill:#E91E63;}</style><g id="Background"><radialGradient id="SVGID_1_" cx="218.251" cy="224.25" r="225" gradientUnits="userSpaceOnUse"><stop offset="0" stop-color="#FFF"/><stop offset=".284" stop-color="#FBFBFB"/><stop offset=".573" stop-color="#EFEFEF"/><stop offset=".863" stop-color="#DADADA"/><stop offset=".995" stop-color="#CFCFCF"/></radialGradient><path class="st0" d="M-.8-.8h450v450H-.8z"/></g><g id="XMLID_4_"><path class="st1" d="M359.9 258c-3.6 1.5-1.1 7-1.7 13.4 2 1 6.1 2.4 8.1 3-1.5-9.8-1.9-14.2-6.4-16.4z"/><path class="st1" d="M385 276.6c-5.4 2.3-11.7 3-17.6 2.4-.7.7-5.3-.9-6.8-1.3-4.5-1.4-8.6-4.8-12.6-7.2-6.1-3.7-12.2-7.4-18.4-11-6.2-3.6-21-14.3-27.5-19.1.6.7 7.9 8.4 8.6 9.1 3.6 3.4 8.1 6 12.2 8.7 9.6 6.3 16.4 15.1 25.2 22.3 4.9 4 10.2 6.7 16.7 6.1 6.7-.6 13.2-4 19.6-5.9 5.3-1.5 15.8-1.8 12.6-9.9-.9-2.2-1.6-2.5-4.6-4.8 3.6 7-5.6 9.9-7.4 10.6z"/><path class="st1" d="M378.6 260.9c0 1.9.2 3.6 1.4 5.2 1.3 1.6 7 3.3 9.6 2.9.5-2.9 1.3-5.7 1.8-8.6.3-1.5.5-2.9.5-4.4 0-.6.2-7.7-1.7-7.2-2-.4-3.7 7.1-5.1 8.1-2.1 1.5-4.2 3-6.5 4zM329.9 168.1c2.3-1.1 6.3-2.6 8.5-3.7.9 4.5 1 2.4-1.3 19.9-5.2-6.5-7.1-15.8-7.2-16.2zM373.3 150.6c.7 2.4 2.2 4.7 2.8 7 1.1 4.5 1.8 9.1 2.2 13.6-4.7-2.6-9.4-8.1-13.3-12.2 2.5-2.2 7.9-8.2 8.3-8.4zM327.1 112.8c2.3-2.4 4.2-5.3 6.2-8.1 3.5-4.9 8.3-10.6 14.3-12.5 6-1.9 10.1.3 15.2 3.1 4.6 2.5 9.5 5.6 12.7 9.8 1.2 1.6 2 3.2 2.7 4.9-.3 1.1-.3 2.3-1.6 2.8-1 .4-2.2-1-2.8-1.7-1.5-1.8-2.6-4.5-4.5-6-1.2-1.6-2.7-2.9-4.4-3.6-1.2-.5-2 .9-1.3 1.8 1.1 1.6 2.5 3.2 3.3 5.1.6 1.2.7 2.2.5 3.3-3.2-.1-6.3 0-9.2.5 2-5.1-1.4-10.7-7.3-10.3-1 .1-2 1.1-2.1 2.2-.2 3.3 1 6.1.3 9.2-.3.2-.7.3-1 .5-3 1.4-6.3 2.8-9.5 3.7-1.4-.1-2.8-.3-4.1-1-2.5-1.2-7.3-3.5-7.4-3.7z"/><path class="st1" d="M55.2 279.3l.3.6c.6 1.2 1.1 2.4 1.6 3.6 1.5-9 5.9-18 10.9-25 .8-1.2-16.8 35 14.4 68 8.1 8.6 18.7 14.5 28.7 20.6 1.3.8 2.6 1.5 3.9 2.2-2.1-2-4.2-4-6.2-6.1-16.3-16.6-29.8-40.6-25.1-64.7.1-.7 1-.5 1 .1 0 12.7 1.7 24.1 7.2 35.7 5.1 10.7 12.8 19.9 21.2 28 1.5 1.5 3.1 2.9 4.7 4.3.1-.2.4-.3.6-.1 10.3 6.9 22.6 7.5 34.5 9.4-6.4-5.2-12.1-11.2-17.1-17.9-7.1-9.6-15.1-24.5-13.6-36.9 0-.1.1-.1.1 0 3.2 5.7 4.8 12.3 7.7 18.2 2.9 6.1 6.9 11.7 11.2 16.8 6.1 7.3 23.8 15 31.8 20.3-5-7.1-16.6-28.3-15.2-27.2 10.9 8.8 39.6 33.7 75.2 37.7 7.8.9 31 5.1 35.1 5.5-1.8-1-3.5-2-5.2-3.2-11.6-7.9-36-26.5-34.1-25.1 69.8 49.8 87.3 26.4 90.2.8.1-1.2 1.7-1.8 2.1-.6 3.2 10.6.7 19.3-5 26.2 2.9-1.9 9.9-3.4 14-17 1.4-4.8 1.5-10.1 1.3-15-.2-5.2-1.8-10.7-.8-15.7 0-.2.3-.3.4-.1 4.8 7.8 5 20.9 3.6 30 .9-1.4 1.7-2.9 2.5-4.4 3.4-6.6 4.2-12.8 3.3-20.1-.7-5.7-1.9-11.1-.7-16.7.1-.4.2-.9.3-1.3 0-.2.1-.3.2-.4l-10.2-1.5c-2.7-.4-5.2-.4-7.6-.1-.1.2-.3.4-.6.6-8.4 4.9-15.4 12-17 22-1.1 6.9.1 13.2-3 19.8-.5 1-2.4-15.6-1.2-27.4.4-3.8 10-11.8 13-14.8-8 .2-21.3 9.4-20.3 7.8 13.6-21 40.8-12.1 60.9-11.2 14.3.6 24.9-6.4 34.5-16.2.9-1 3.4-3.9 6.1-6.2-5 1.8-10.8 2.5-15.5 4.2-7.2 2.6-14.3 5.2-21.9 3.3-14-3.4-23-18.6-34.2-26.6-6-4.3-20.8-16.9-20.8-16.9-12.2-2.4-7.8-23.9-7.9-32.5-.1-15.8 5.7-29.7 17.1-40.9 5.5-5.4 12.3-8.6 19.3-11.8 8-3.7 15.4-8.3 23.3-12.2 3.8-1.9 7.7-3.3 11.3-5.8 3.6-2.4 4.6-6.5 6.3-10.2 1.6-3.4 3.5-5.5 7.3-5.5.4 0 .7.3.8.7.1.4-.1.8-.5 1-3.8 1.4-4.7 9.6-6.1 12.8-.6 1.4-1.4 2.5-2.4 3.6-2.2 2.5-5.2 4.3-8 5.9-7.5 4.3-15.4 7.1-23.1 11 4.2 8.8-1.1 28.2-2.3 26.9-4.8-5.5-10.4-21-10.6-20.9-12.3 6.2-26.5 31.5-25.5 31.6 14.2 1 30.1 13 38.6 23.5 8.7 10.7 14.2 30.4 12.2 44.5.8.4 4.3 1.8 3.6 1.5-1.3-13.5 4-13.8 5.7-14 1.7-.2 6.2 11.4 6.6 14.2.2 1.1.4 4.1.6 5.1 3.6.4 13.6-1.9 18.9-3.7-3.3-.5-9.9-1.9-11.6-4.9-1-1.9 1.1-9.9 5.5-9-2-1.3-6.9-5.6-8.7-7.2-4.1-3.3-8-6.9-11.2-11.1-5.6-7.4-8.3-17.6-8.4-26.7-.2-10.3 2.6-19.4 8.3-27.9 2.4-3.7 5.3-6.9 7.6-10.7.7-1.1 2.1-4.5 3.2-5.1-2.9-3.4-6.2-5-9.4-7.6-1.1-.9-1.3-2.6-.1-3.5 4-3.1 8.7-10.8 11.8-9.2.1.1 2.5 4.3 3.3 5.7 1.6-3.5 4.8-7.3 5.3-11.5.6-4.1-.1-8.5-.6-12.6-.1-.6-.2-1.3-.3-2.1-.5-3.1-1.3-7-.7-10.2 0-.1-.5-.9-.7-1.3-4 1.5-8.2.7-12.4.6-7.8-.3-14.4 1.3-21.7 4.1-4.1 1.6-7.9 2.4-12.2 1.1-3.4-1.1-8.2-2.8-9.8-6.2-.1-.4-4 1.9-6.7 2.6-7.4 2-17.9 3.8-25.4 1.5v-.1c8.3-5.9 19.8-3.5 28-8.8-10.4-1.9-15.3-16.4-28.5-11.9-3.4 1.2-6.6 2.3-9.8 3.3-4.8 1.6-9.6 2.9-14.9 3.9-10.7 1.9-21.5 3.1-32.2 4.3-19.5 2.2-38.9 1.8-58.1 6.3-10.4 2.4-19.8 6.3-29.4 10.9-4.9 2.3-10 4.4-14.6 7.3-2.4 1.5-4.7 2.7-7.6 2.8-.1 0 8.4 1.2 12.5 3 1.1.5-7.4 2.6-8.1 2.5l-12-1.8c-7.4-1.1-14.3-4.1-21.7-5.1-15.5-2-22.5 13.5-23.6 26.4-.7 7.7-2.5 14.4.3 22s9.2 14.3 16.4 17.7c5.2 2.5 11 3.7 16.8 4.3 6.2.7 11.4-1.2 17.4-2 1-.1 1.9.9 1.5 1.9-4.9 12.3-27.9 5.8-36.6 2.4-5.2-2.1-9.7-5.3-13.3-9.3-9.9 4.2-15.5 20.5-19.9 28.9-11.3 21.5-.7 48.8-.1 50.2zm177.1-128.7c-.7-4 8.9-14.9 10-17.4.8-1.9.1-3.6 2.1-4.5 3-1.3 13.2 6 15.1 7.8.7.7 1.4 1.3 2.1 2 .9.8 1.1 1.1 1.2 1.1 3.1 2.1 1 6 0 6-5.4-.1-10.6-1.9-15.9-.9-4.5.8-5.4 4.6-9.5 5.9-1.9.6-4.8 2-5.1 0zM115.8 185c-3-1.3-6.5-1.6-9.8-1.3-2.2.2-4.3.9-6.1 2.3-1.5 1.1-1.8 2.3-3.7 2.8-.7.2-1.3-9.6 9.1-9.9 2.2-.1 9.5 2.1 9.6 2-2.5-2.1-4.8-4.7-7-7.1-2.2-2.5-4.8-12.4-9.2-10.5-1.9.8 3.5-7.4 10.2 1.5 7.2 9.6 14.3 18 26.4 18.5 1.4.1-18.6 2-19.5 1.7z"/></g></svg>